<!--?xml version="1.0" standalone="no"?-->              
<svg id="sw-js-blob-svg" viewBox="0 0 100 100" xmlns="http://www.w3.org/2000/svg" version="1.1">                    <defs>                         
<linearGradient id="sw-gradient" x1="0" x2="1" y1="1" y2="0">
<stop id="stop1" stop-color="rgba(217, 54, 145, 1)" offset="0%">
</stop>
<stop id="stop2" stop-color="rgba(255, 252.793, 249.151, 1)" offset="100%"></stop> 
</linearGradient>
</defs>
<path fill="url(#sw-gradient)" d="M13,-17.8C19.3,-16.2,28.6,-16.8,28.9,-13.9C29.1,-11,20.3,-4.7,18,1.7C15.7,8.1,19.9,14.5,18.8,17C17.7,19.4,11.3,17.9,7,15.3C2.7,12.8,0.5,9.2,-3.2,9C-6.9,8.7,-12.2,11.9,-15.1,11.4C-17.9,11,-18.5,6.9,-18.5,3C-18.4,-0.8,-17.9,-4.4,-18.5,-10.7C-19.1,-17,-20.8,-26.1,-17.9,-29.3C-15.1,-32.5,-7.5,-29.9,-2.1,-26.7C3.3,-23.4,6.7,-19.5,13,-17.8Z" width="100%" height="100%" transform="translate(50 50)" stroke-width="0" style="transition: all 0.3s ease 0s;" stroke="url(#sw-gradient)">
</path>
</svg>

